<?xml version="1.0" encoding="UTF-8" standalone="no"?>
<!-- Created with Inkscape (http://www.inkscape.org/) -->

<svg
   width="210mm"
   height="120mm"
   viewBox="0 0 210 120"
   version="1.1"
   id="svg1"
   xml:space="preserve"
   inkscape:version="1.4.2 (ebf0e940, 2025-05-08)"
   sodipodi:docname="puget-logo.svg"
   xmlns:inkscape="http://www.inkscape.org/namespaces/inkscape"
   xmlns:sodipodi="http://sodipodi.sourceforge.net/DTD/sodipodi-0.dtd"
   xmlns="http://www.w3.org/2000/svg"
   xmlns:svg="http://www.w3.org/2000/svg"><sodipodi:namedview
     id="namedview1"
     pagecolor="#ffffff"
     bordercolor="#000000"
     borderopacity="0.25"
     inkscape:showpageshadow="2"
     inkscape:pageopacity="0.0"
     inkscape:pagecheckerboard="0"
     inkscape:deskcolor="#d1d1d1"
     inkscape:document-units="mm"
     inkscape:zoom="0.37059484"
     inkscape:cx="161.90188"
     inkscape:cy="804.11266"
     inkscape:window-width="1840"
     inkscape:window-height="915"
     inkscape:window-x="0"
     inkscape:window-y="201"
     inkscape:window-maximized="0"
     inkscape:current-layer="layer1" /><defs
     id="defs1" /><g
     inkscape:label="Layer 1"
     inkscape:groupmode="layer"
     id="layer1"><path
       style="fill:#000000;stroke-width:0.590856"
       d="m 100.59997,112.53243 c -0.36963,-0.29385 -0.799645,-0.69767 -0.955584,-0.89738 -1.990268,-2.54889 -1.608445,-7.74173 0.998014,-13.573026 3.29963,-7.38212 9.64802,-15.25163 18.68832,-23.16622 l 2.42566,-2.1236 1.1345,-3.496221 c 0.62398,-1.922922 1.13287,-3.55223 1.13088,-3.620675 -0.002,-0.06845 -0.48324,0.508119 -1.06942,1.281265 -3.18878,4.20587 -6.44345,6.868303 -9.01754,7.376684 -1.69253,0.334272 -3.53572,-0.332807 -4.53327,-1.640634 -0.62185,-0.815282 -1.1728,-2.447158 -1.1728,-3.473729 0,-0.476159 -0.0635,-0.842288 -0.14116,-0.813626 -0.0776,0.02866 -0.90642,0.793638 -1.84172,1.699951 -4.11333,3.985817 -7.615904,5.311854 -10.46745,3.962851 -1.623429,-0.768005 -2.417882,-2.251173 -2.523852,-4.71179 -0.03793,-0.881315 -0.122927,-1.602389 -0.188825,-1.602389 -0.0659,0 -0.419254,0.396601 -0.78523,0.881332 -0.966983,1.280757 -3.808857,4.17825 -4.909645,5.005725 -3.096118,2.327389 -5.903651,2.54617 -7.838964,0.610855 -1.047935,-1.047934 -1.319038,-1.88419 -1.317519,-4.064083 0.0012,-1.961658 0.337974,-3.443613 1.503869,-6.620945 1.59687,-4.35183 4.885118,-10.349989 6.240831,-11.384046 1.567593,-1.195661 3.978993,-0.0023 3.978993,1.969003 0,0.624032 -0.113096,0.895802 -0.754813,1.813768 -0.934615,1.336958 -2.466084,3.990456 -3.555533,6.160491 -1.636138,3.258976 -2.615582,6.257197 -2.537234,7.766839 l 0.04721,0.909504 0.56331,-0.01578 c 1.272496,-0.03569 3.630938,-2.278244 7.546195,-7.175404 2.030452,-2.539674 3.046316,-3.941716 5.235596,-7.225899 0.872475,-1.308809 1.803368,-2.626867 2.068663,-2.929019 1.459528,-1.662313 4.362048,-0.561425 4.362048,1.654473 0,0.55551 -0.21134,1.072893 -1.10997,2.717333 -2.494141,4.564106 -3.641287,7.583491 -3.842107,10.112725 -0.216365,2.724973 0.783073,2.97214 3.722277,0.920536 1.61809,-1.129451 3.15706,-2.545117 5.20404,-4.787101 2.06013,-2.256383 3.73162,-4.349407 4.86422,-6.090948 1.16804,-1.796048 2.64173,-3.583274 3.69889,-4.485859 4.19219,-3.579191 8.90241,-4.329884 11.59498,-1.84796 l 0.70599,0.650757 0.44385,-0.910402 c 0.35797,-0.734239 0.5779,-0.978469 1.13657,-1.262145 0.81917,-0.415962 1.55057,-0.447786 2.22896,-0.09698 1.18172,0.611087 1.42432,1.36158 1.03954,3.215891 -0.23734,1.143808 -1.97045,7.232541 -3.10595,10.911751 -0.51744,1.676648 -0.94132,3.133491 -0.94194,3.237429 -6e-4,0.103943 1.08315,-0.599548 2.40839,-1.563304 1.32523,-0.963763 3.27741,-2.339919 4.33817,-3.058133 5.48647,-3.714751 5.0283,-3.346087 6.00433,-4.83151 1.18343,-1.801052 4.35246,-4.95898 6.24941,-6.227506 2.63685,-1.763332 5.53494,-2.635075 7.48485,-2.251455 1.7814,0.350471 2.92615,1.167158 3.50525,2.500696 0.92805,2.137089 0.38402,4.303012 -1.74736,6.95671 -1.73187,2.156287 -4.23382,4.062039 -7.19587,5.481156 -2.25781,1.081709 -4.19998,1.648806 -5.76507,1.683353 -1.19384,0.02635 -1.21177,0.03279 -1.37313,0.494949 -0.26611,0.762192 -0.36121,2.601017 -0.17076,3.301837 0.55742,2.051308 3.25481,2.716588 6.68521,1.64884 4.33586,-1.349584 9.89061,-5.036487 14.52358,-9.639856 l 2.36002,-2.344958 0.91333,-2.344959 c 1.35252,-3.472642 3.63395,-8.871745 5.5642,-13.167998 0.93858,-2.089036 1.7065,-3.842347 1.7065,-3.896262 0,-0.232313 -9.1143,0.474203 -12.97543,1.00582 -1.07477,0.147979 -2.3993,0.269051 -2.94339,0.269051 -0.94274,0 -1.0144,-0.02747 -1.52422,-0.583943 -0.47264,-0.515911 -0.53496,-0.683525 -0.53496,-1.438697 0,-1.613438 0.46734,-2.047363 2.54739,-2.365213 2.06629,-0.315747 8.93366,-0.950516 13.39832,-1.238446 2.10655,-0.135849 3.91663,-0.262133 4.02239,-0.280632 0.10576,-0.0185 1.49274,-2.636532 3.0822,-5.817859 3.96644,-7.938966 6.28449,-12.11611 7.06383,-12.729143 1.29878,-1.021619 3.59467,-0.02689 3.88349,1.682571 0.12564,0.74365 -0.11037,1.357858 -1.14817,2.988106 -0.41312,0.648957 -1.35229,2.305502 -2.08702,3.681212 -1.27752,2.391999 -4.96789,9.663555 -4.9679,9.78884 -1e-5,0.03297 3.74606,0.05998 8.32459,0.05998 8.0651,0 11.91177,0.159998 13.43303,0.558725 1.81975,0.476969 1.86011,3.22076 0.0547,3.719254 -0.31539,0.08708 -0.97824,0.0887 -1.67051,0.0042 -3.06455,-0.374615 -15.47268,-0.303901 -21.05841,0.120014 l -1.30743,0.09922 -0.6211,1.344959 c -4.21557,9.128656 -7.89541,18.108923 -9.71601,23.710938 -1.13583,3.494976 -1.50557,5.125891 -1.50719,6.648189 -0.002,1.687197 0.20782,1.955305 1.49291,1.909538 1.59766,-0.05693 3.91337,-1.27632 7.06547,-3.720593 1.67242,-1.296862 7.23609,-6.656875 9.77848,-9.420513 0.91973,-0.99977 1.10832,-1.133397 1.59961,-1.133397 1.53128,0 2.45009,1.600161 1.66063,2.892114 -0.45778,0.749181 -3.1652,3.717079 -5.63836,6.180835 -4.73434,4.716344 -9.20344,7.98198 -12.53589,9.160172 -1.5851,0.56041 -3.65578,0.67853 -4.93009,0.28122 -1.21496,-0.37881 -2.52046,-1.639427 -2.9858,-2.883138 -0.60663,-1.621423 -0.6016,-4.161431 0.013,-6.529191 0.23866,-0.919471 0.13452,-1.133113 -0.30761,-0.631086 -1.09782,1.246522 -6.45824,5.082443 -8.98475,6.42949 -5.94656,3.170475 -11.68845,3.295135 -14.54613,0.315811 -1.52588,-1.590834 -2.16972,-3.251182 -2.16349,-5.579284 0.003,-0.786275 0.0749,-1.737854 0.16175,-2.114625 0.0869,-0.37677 0.12683,-0.71614 0.0888,-0.754161 -0.1743,-0.174297 -7.68514,5.425137 -11.05221,8.239581 -0.1543,0.128964 -0.67837,1.395252 -1.16459,2.813943 -1.56862,4.57688 -2.0575,5.9644 -3.16721,8.989 -5.31742,14.493216 -10.73231,23.777966 -15.5079,26.590976 l -1.16921,0.68871 -2.11373,-0.002 -2.11373,-0.002 z m 4.15156,-4.37151 c 2.85252,-2.0999 6.38107,-7.87125 9.99349,-16.345496 1.82446,-4.27995 4.50919,-11.38853 4.35818,-11.53954 -0.12173,-0.12173 -4.97711,4.83325 -6.67949,6.81651 -4.56958,5.32351 -7.98987,11.17753 -9.37764,16.050366 -0.43181,1.51621 -0.52913,4.99174 -0.15251,5.44681 0.34864,0.42128 0.86536,0.30207 1.85797,-0.42865 z m 10.28986,-39.056841 c 1.05834,-0.695738 3.4106,-3.080573 5.43766,-5.512948 2.07665,-2.491887 4.94627,-6.706366 4.94546,-7.263153 -9.3e-4,-0.61852 -0.5705,-1.406491 -1.20979,-1.673599 -2.66682,-1.114271 -6.75697,2.257583 -9.56499,7.885217 -0.97079,1.945588 -1.41419,3.391098 -1.52136,4.959797 -0.14924,2.184127 0.36959,2.619328 1.91302,1.604686 z m 32.97348,-8.408957 c 3.05434,-1.509725 6.48771,-4.897012 6.48771,-6.400639 0,-0.2706 -0.0985,-0.316663 -0.6644,-0.31082 -1.29044,0.01335 -2.75123,0.781 -4.79025,2.517371 -1.73527,1.477694 -4.55627,4.903541 -4.33399,5.263212 0.13313,0.215408 1.78374,-0.319198 3.30093,-1.069124 z M 23.22825,93.988194 c -0.715478,-0.21845 -1.545382,-1.13949 -1.873231,-2.07893 -0.589195,-1.68829 -0.249394,-5.50927 0.836132,-9.40214 0.995881,-3.57137 3.959926,-11.705947 4.994035,-13.705693 0.34548,-0.668086 0.205127,-0.852486 -0.743101,-0.976305 -1.903252,-0.248532 -3.823532,-1.006955 -4.813086,-1.900955 -1.401456,-1.266133 -1.974563,-3.51051 -1.268738,-4.968558 0.463082,-0.956602 1.467194,-1.479243 2.339717,-1.217825 0.819334,0.245477 1.287031,0.801868 1.381952,1.644027 0.09259,0.821484 0.551068,1.323918 1.565702,1.715856 0.843535,0.32584 3.594636,0.674793 3.785151,0.480117 0.07696,-0.07864 1.082336,-2.007231 2.234168,-4.285747 6.797676,-13.446913 16.144285,-28.427934 20.908106,-33.51212 1.158078,-1.235961 1.929387,-1.655019 3.048443,-1.656253 2.169061,-0.0023 3.411098,2.12128 2.400192,4.1039 -0.693925,1.360942 -2.483532,3.862954 -2.763042,3.862954 -0.440943,0 -5.745096,8.130961 -10.300062,15.789383 -3.142087,5.282918 -3.692392,6.236572 -5.908775,10.239654 -2.768625,5.000511 -2.723106,4.913396 -2.605608,4.986012 0.05802,0.03586 1.230959,-0.130633 2.606524,-0.369982 15.488217,-2.694982 31.777181,-10.119277 42.461381,-19.353342 3.164984,-2.735414 6.673685,-6.625548 8.563023,-9.493922 1.794009,-2.723652 3.367204,-6.495192 3.839859,-9.205585 C 95.019972,18.357785 91.978773,13.070304 85.719537,10.430491 81.50328,8.6522988 77.059029,7.8629098 71.256555,7.8615738 63.637158,7.8598118 55.809449,9.1221138 47.338588,11.718584 33.183831,16.057269 20.680983,23.403188 14.157334,31.213881 c -3.825985,4.580811 -5.6010577,9.389507 -4.8247917,13.070425 0.469931,2.228342 1.4019707,3.654945 3.7842707,5.792307 0.976336,0.87595 1.13647,1.438214 0.694309,2.4378 -0.316621,0.715774 -0.984448,1.151518 -1.75974,1.148197 C 11.521751,53.66031 10.134015,52.969377 9.3130563,52.299181 8.2834428,51.458642 6.8077039,49.548536 6.2007001,48.270733 5.2773699,46.32703 4.9967257,44.969947 4.9883765,42.40834 4.9780365,39.242748 5.4357376,37.409713 7.0336881,34.216793 8.5600639,31.166893 10.274431,28.893456 13.411958,25.758521 23.315313,15.863347 40.671289,7.6783548 58.223797,4.6254818 l 3.340267,-0.580966 8.44185,-0.05675 c 8.106705,-0.0545 8.519429,-0.04324 10.395981,0.283549 13.30633,2.317246 20.256365,10.9084402 17.97084,22.2144082 -0.589946,2.918334 -1.692961,5.665027 -3.470048,8.641033 -3.75666,6.2911 -9.744823,12.209246 -17.742143,17.534706 -3.971105,2.644374 -5.141809,3.317849 -9.96858,5.734644 -9.913081,4.96353 -22.252085,8.611449 -32.418832,9.584346 l -1.152724,0.110307 -0.701889,1.502121 c -0.386041,0.826164 -0.98173,2.100081 -1.323765,2.830933 -2.658844,5.681381 -4.85717,11.730901 -5.506231,15.152481 -0.343624,1.81144 -0.316581,2.25657 0.182982,3.01146 1.291598,1.95174 -0.656973,4.129 -3.043255,3.40043 z"
       id="path1" /></g></svg>
